<svg width="1495" height="880" viewBox="0 0 1495 880" fill="none" xmlns="http://www.w3.org/2000/svg">
<path d="M995 640H885C880.029 640 876 644.029 876 649V709C876 713.971 880.029 718 885 718H995C999.971 718 1004 713.971 1004 709V649C1004 644.029 999.971 640 995 640Z" fill="white"/>
<path d="M995 640H885C880.029 640 876 644.029 876 649V709C876 713.971 880.029 718 885 718H995C999.971 718 1004 713.971 1004 709V649C1004 644.029 999.971 640 995 640Z" stroke="#20733C" stroke-width="2"/>
<path d="M803.918 372H693.918C688.947 372 684.918 376.029 684.918 381V441C684.918 445.971 688.947 450 693.918 450H803.918C808.889 450 812.918 445.971 812.918 441V381C812.918 376.029 808.889 372 803.918 372Z" fill="white"/>
<path d="M803.918 372H693.918C688.947 372 684.918 376.029 684.918 381V441C684.918 445.971 688.947 450 693.918 450H803.918C808.889 450 812.918 445.971 812.918 441V381C812.918 376.029 808.889 372 803.918 372Z" stroke="#20733C" stroke-width="2"/>
<path d="M427 372H317C312.029 372 308 376.029 308 381V441C308 445.971 312.029 450 317 450H427C431.971 450 436 445.971 436 441V381C436 376.029 431.971 372 427 372Z" fill="white"/>
<path d="M427 372H317C312.029 372 308 376.029 308 381V441C308 445.971 312.029 450 317 450H427C431.971 450 436 445.971 436 441V381C436 376.029 431.971 372 427 372Z" stroke="#20733C" stroke-width="2"/>
<path d="M615 208H505C500.029 208 496 212.029 496 217V277C496 281.971 500.029 286 505 286H615C619.971 286 624 281.971 624 277V217C624 212.029 619.971 208 615 208Z" fill="white"/>
<path d="M615 208H505C500.029 208 496 212.029 496 217V277C496 281.971 500.029 286 505 286H615C619.971 286 624 281.971 624 277V217C624 212.029 619.971 208 615 208Z" stroke="#20733C" stroke-width="2"/>
<path d="M298.88 549H188.88C183.909 549 179.88 553.029 179.88 558V618C179.88 622.971 183.909 627 188.88 627H298.88C303.85 627 307.88 622.971 307.88 618V558C307.88 553.029 303.85 549 298.88 549Z" fill="white"/>
<path d="M298.88 549H188.88C183.909 549 179.88 553.029 179.88 558V618C179.88 622.971 183.909 627 188.88 627H298.88C303.85 627 307.88 622.971 307.88 618V558C307.88 553.029 303.85 549 298.88 549Z" stroke="#20733C" stroke-width="2"/>
</svg>
